<svg width="423" height="315" viewBox="0 0 423 315" fill="none" xmlns="http://www.w3.org/2000/svg">
<path d="M98.802 205.079C114.412 200.73 129.163 186.8 129.327 170.004C129.616 139.886 113.315 112.604 117.693 82.4205C120.787 60.9538 130.507 36.1831 146.859 20.0085C156.137 10.8291 167.547 4.41249 181.108 2.95649C211.306 -0.310175 243.791 16.6625 259.816 42.1845C265.883 51.8772 269.369 62.9138 269.369 74.1325V74.2865C269.356 79.0875 268.698 83.8653 267.413 88.4918C267.012 89.9338 266.559 91.3945 266.107 92.8691C266.076 92.9396 266.053 93.0129 266.037 93.0885C265.897 93.5131 265.761 93.9565 265.621 94.3811C263.288 101.885 260.955 109.51 263.288 116.818C263.414 117.22 263.563 117.616 263.713 118.004C265.878 123.454 270.503 127.748 275.678 130.571C283.975 135.098 293.145 137.37 302.339 139.559C313.973 142.326 325.63 144.996 335.593 151.963C352.015 163.443 361.26 182.614 363.537 202.204C365.815 221.795 362.464 242.193 355.828 260.925" stroke="white" stroke-width="4.42" stroke-miterlimit="10"/>
<path d="M24.9332 312.879C3.96588 287.843 2.87388 246.944 31.0652 227.055" stroke="white" stroke-width="4.42" stroke-miterlimit="10"/>
<path d="M221.414 9.73633V45.5017" stroke="white" stroke-width="4.42" stroke-miterlimit="10"/>
<path d="M221.414 59.1699V66.0626" stroke="#CCDDE2" stroke-width="4.42" stroke-miterlimit="10"/>
<path d="M267.413 88.5094C264.809 97.8427 260.339 107.601 263.297 116.836C263.419 117.237 263.573 117.634 263.722 118.021H158.666C155.535 118.021 152.532 116.777 150.317 114.563C148.104 112.349 146.859 109.346 146.859 106.215V20.0261C156.137 10.8467 167.547 4.43007 181.108 2.97407C211.306 -0.292597 243.791 16.6801 259.816 42.2021C268.501 56.0247 271.847 72.6241 267.413 88.5094Z" stroke="white" stroke-width="4.42" stroke-miterlimit="10"/>
<g opacity="0.67">
<path opacity="0.67" d="M112.074 153.544C112.074 153.572 112.074 153.6 112.046 153.628C111.855 154.37 111.663 155.117 111.495 155.859C111.439 156.092 111.388 156.325 111.346 156.531C111.164 157.305 111.001 158.075 110.879 158.864C110.876 158.871 110.875 158.878 110.875 158.885C110.875 158.892 110.876 158.899 110.879 158.906C110.739 159.648 110.618 160.376 110.506 161.123C110.45 161.412 110.408 161.701 110.38 161.986C110.259 162.733 110.175 163.461 110.091 164.203C109.624 168.431 110.739 173.153 109.517 177.269C108.705 179.953 106.488 182.197 104.038 184.386C103.665 184.713 103.277 185.044 102.909 185.389L101.751 186.393C101.187 186.901 100.622 187.41 100.085 187.923C99.908 188.087 99.726 188.25 99.5626 188.432C99.3993 188.614 99.2173 188.777 99.04 188.955C97.374 190.691 96.0533 192.534 95.6519 194.653C95.5054 195.433 95.4863 196.232 95.596 197.019C95.6104 197.187 95.6384 197.354 95.68 197.518C95.6996 197.685 95.7322 197.851 95.778 198.013C95.806 198.12 95.834 198.232 95.8573 198.339C95.9693 198.755 96.0953 199.165 96.2446 199.581C96.7006 200.74 97.2148 201.875 97.7846 202.983C97.8966 203.202 98.0086 203.407 98.1019 203.627C98.6526 204.7 99.1893 205.787 99.6186 206.893C99.712 207.141 99.796 207.388 99.894 207.64C99.992 207.892 100.015 208.051 100.085 208.256L100.169 208.587C100.235 208.849 100.291 209.11 100.347 209.371C100.403 209.633 100.417 209.801 100.445 210.006C100.445 210.062 100.445 210.127 100.445 210.197C100.524 210.918 100.491 211.647 100.347 212.358C99.9593 214.397 98.7226 216.129 97.08 217.767C95.6706 219.107 94.1759 220.354 92.6046 221.5C91.8066 222.107 91.0086 222.709 90.2386 223.329C89.4686 223.95 88.7266 224.571 88.022 225.196C87.8586 225.364 87.6766 225.527 87.5133 225.691C86.7074 226.466 85.992 227.33 85.3806 228.267C82.352 232.961 83.7706 238.342 82.198 243.354C81.9735 244.08 81.6846 244.784 81.3346 245.459C81.2184 245.706 81.084 245.945 80.9333 246.173C80.8241 246.4 80.6944 246.617 80.5459 246.821C80.363 247.132 80.1624 247.431 79.944 247.717C79.734 248.007 79.5146 248.296 79.2813 248.571C79.1362 248.764 78.9803 248.947 78.8146 249.122C78.6606 249.313 78.4973 249.491 78.3199 249.673C78.2691 249.728 78.2131 249.778 78.1519 249.822C77.9186 250.083 77.6713 250.331 77.41 250.564C76.9713 250.979 76.4766 251.39 76.01 251.777C75.7766 251.969 75.5433 252.151 75.282 252.342C75.212 252.398 75.142 252.44 75.0626 252.505C74.9833 252.571 74.9226 252.603 74.8386 252.659C74.6473 252.795 74.4559 252.935 74.2506 253.056C74.1666 253.126 74.0686 253.182 73.9893 253.238L73.6019 253.485C73.4619 253.579 73.3126 253.663 73.1633 253.747C72.86 253.938 72.5426 254.129 72.23 254.311C71.9966 254.433 71.7633 254.573 71.5019 254.694C71.2784 254.827 71.0479 254.947 70.8113 255.053C70.606 255.165 70.4006 255.259 70.1813 255.357C69.864 255.506 69.5606 255.646 69.248 255.781C68.9353 255.917 68.5993 256.057 68.2866 256.183L67.498 256.472C67.2506 256.579 67.0033 256.663 66.7559 256.747L66.6206 256.789C66.154 256.953 65.6546 257.102 65.1739 257.256C65.0377 257.301 64.8991 257.337 64.7586 257.363C64.6233 257.419 64.4693 257.447 64.3339 257.489C64.0446 257.256 63.7413 257.023 63.4379 256.747C63.4039 256.723 63.3726 256.695 63.3446 256.663C63.3446 256.663 63.3166 256.663 63.3166 256.635C63.3166 256.607 63.2886 256.635 63.2746 256.607C63.1206 256.472 62.9853 256.332 62.808 256.197C62.248 255.674 61.6693 255.081 61.0906 254.433L60.7453 254.05C60.7033 254.008 60.6613 253.952 60.6193 253.91C60.5656 253.837 60.5063 253.769 60.4419 253.705C59.9473 253.14 59.4666 252.533 58.9953 251.913C58.79 251.679 58.6126 251.446 58.4446 251.199C58.3476 251.087 58.2603 250.966 58.1833 250.839C57.978 250.564 57.7866 250.289 57.5953 250.013C57.5113 249.906 57.4413 249.808 57.3713 249.701L57.0446 249.234C57.0166 249.206 57.0026 249.164 56.9746 249.141L56.2 248.058C58.3298 244.51 60.0626 240.739 61.366 236.811C61.4593 236.522 61.5293 236.233 61.5993 235.943C61.7286 235.381 61.8205 234.81 61.8746 234.235V234.165C61.9675 232.902 61.9157 231.632 61.7206 230.381C61.5414 229.205 61.303 228.038 61.0066 226.885C60.8526 226.293 60.7033 225.714 60.54 225.126L60.0733 223.362C59.6855 221.913 59.3859 220.442 59.1773 218.957C59.154 218.779 59.14 218.597 59.126 218.42L59.0839 218.023C59.0839 217.827 59.0559 217.636 59.0419 217.431C59.0279 217.225 59.0419 217.085 59.0419 216.922V216.852C59.0419 216.437 59.014 216.026 59.014 215.625C59.014 215.223 59.0139 214.827 59.0419 214.43C59.0419 214.248 59.0419 214.057 59.0699 213.879C59.0699 213.562 59.098 213.245 59.126 212.946C59.154 212.647 59.168 212.311 59.1913 212.013C59.2146 211.714 59.2473 211.378 59.2893 211.079C59.3313 210.781 59.3593 210.445 59.3873 210.146C59.4946 209.213 59.6066 208.247 59.7186 207.295C59.7186 207.239 59.7186 207.169 59.7186 207.117C59.7839 206.553 59.8539 205.974 59.9099 205.409V205.381C59.9659 204.803 60.0173 204.238 60.0593 203.659C60.0532 203.614 60.0532 203.569 60.0593 203.524C60.1027 203.001 60.1307 202.479 60.1433 201.956C60.1433 201.858 60.1433 201.76 60.1433 201.667V201.597C60.1433 201.237 60.1433 200.892 60.1433 200.537C60.8153 199.973 61.5059 199.45 62.2199 198.927C64.0987 197.58 65.8926 196.118 67.5913 194.55C67.918 194.247 68.2073 193.929 68.4966 193.617C71.0446 190.756 72.202 187.601 72.916 184.325C74.0313 179.299 74.1153 174.031 76.6213 169.224C76.8266 168.827 77.0459 168.44 77.2933 168.057C77.5709 167.599 77.8747 167.156 78.2033 166.732C78.8286 165.91 79.5081 165.13 80.2379 164.399C81.5535 163.106 82.988 161.941 84.522 160.917C85.4833 160.269 86.5146 159.662 87.5739 159.083C88.6333 158.505 89.7486 157.982 90.8919 157.501C92.0353 157.021 93.2486 156.568 94.4713 156.153C94.8866 156.017 95.2973 155.877 95.7126 155.756C95.7126 155.756 95.7126 155.756 95.7406 155.756C96.9773 155.397 98.2559 155.065 99.5533 154.776C99.9779 154.697 100.417 154.599 100.86 154.515C104.551 153.78 108.312 153.454 112.074 153.544Z" fill="#3FBDF1"/>
<path opacity="0.67" d="M112.074 153.544C112.074 153.572 112.074 153.6 112.046 153.628C111.855 154.37 111.663 155.117 111.495 155.859C111.439 156.092 111.388 156.325 111.346 156.531C111.164 157.305 111.001 158.075 110.879 158.864C110.876 158.871 110.875 158.878 110.875 158.885C110.875 158.892 110.876 158.899 110.879 158.906C110.739 159.648 110.618 160.376 110.506 161.123C110.45 161.412 110.408 161.701 110.38 161.986C110.273 162.733 110.175 163.461 110.091 164.203C109.624 168.431 110.739 173.153 109.517 177.269C108.705 179.953 106.488 182.197 104.038 184.386C103.665 184.713 103.277 185.044 102.909 185.389L101.751 186.393C101.187 186.901 100.622 187.41 100.085 187.923C99.908 188.087 99.726 188.25 99.5626 188.432C99.3993 188.614 99.2173 188.777 99.04 188.955C97.374 190.691 96.0533 192.534 95.6519 194.653C95.5054 195.433 95.4863 196.232 95.596 197.019C95.6104 197.187 95.6384 197.354 95.68 197.518C95.6996 197.685 95.7322 197.851 95.778 198.013C95.806 198.12 95.834 198.232 95.8573 198.339C95.9693 198.755 96.0953 199.165 96.2446 199.581C96.7006 200.74 97.2148 201.875 97.7846 202.983C97.8966 203.202 98.0086 203.407 98.1019 203.627C98.6526 204.7 99.1893 205.787 99.6186 206.893C99.712 207.141 99.796 207.388 99.894 207.64C99.992 207.892 100.015 208.051 100.085 208.256L100.169 208.587C100.235 208.849 100.291 209.11 100.347 209.371C100.403 209.633 100.417 209.801 100.445 210.006C100.445 210.062 100.445 210.127 100.445 210.197C100.524 210.918 100.491 211.647 100.347 212.358C99.9593 214.397 98.7226 216.129 97.08 217.767C95.6706 219.107 94.1759 220.354 92.6046 221.5C91.8066 222.107 91.0086 222.709 90.2386 223.329C89.4686 223.95 88.7266 224.571 88.022 225.196C87.8586 225.364 87.6766 225.527 87.5133 225.691C86.7074 226.466 85.992 227.33 85.3806 228.267C82.352 232.961 83.7706 238.342 82.198 243.354C81.9735 244.08 81.6846 244.784 81.3346 245.459C81.2184 245.706 81.084 245.945 80.9333 246.173C80.8241 246.4 80.6944 246.617 80.5459 246.821C80.363 247.132 80.1624 247.431 79.944 247.717C79.734 248.007 79.5146 248.296 79.2813 248.571C79.1362 248.764 78.9803 248.947 78.8146 249.122C78.6606 249.313 78.4973 249.491 78.3199 249.673C78.2691 249.728 78.2131 249.778 78.1519 249.822C77.9186 250.083 77.6713 250.331 77.41 250.564C76.9713 250.979 76.4766 251.39 76.01 251.777C75.7766 251.969 75.5433 252.151 75.282 252.342C75.212 252.398 75.142 252.44 75.0626 252.505C74.9833 252.571 74.9226 252.603 74.8386 252.659C74.6473 252.795 74.4559 252.935 74.2506 253.056C74.1666 253.126 74.0686 253.182 73.9893 253.238L73.6019 253.485C73.4619 253.579 73.3126 253.663 73.1633 253.747C72.86 253.938 72.5426 254.129 72.23 254.311C71.9966 254.433 71.7633 254.573 71.5019 254.694C71.3773 254.768 71.2476 254.833 71.1146 254.89L70.8113 255.053C70.606 255.165 70.4006 255.259 70.1813 255.357C69.864 255.506 69.5606 255.646 69.248 255.781C68.9353 255.917 68.5993 256.043 68.2866 256.169L67.498 256.458C67.2506 256.551 67.0033 256.635 66.7559 256.719L66.6206 256.761C66.154 256.925 65.6546 257.074 65.1739 257.228C65.0377 257.273 64.8991 257.309 64.7586 257.335C64.6233 257.391 64.4693 257.419 64.3339 257.461C64.0446 257.228 63.7413 256.995 63.4379 256.719C63.4039 256.695 63.3726 256.667 63.3446 256.635C63.3446 256.635 63.3446 256.635 63.3166 256.635C63.2886 256.635 63.2886 256.635 63.2746 256.607C63.1206 256.472 62.9853 256.332 62.808 256.197C62.248 255.674 61.6693 255.081 61.0906 254.433L60.7453 254.05C60.7033 254.008 60.6613 253.952 60.6193 253.91C60.5656 253.837 60.5063 253.769 60.4419 253.705C59.9473 253.14 59.4666 252.533 58.9953 251.913C58.79 251.679 58.6126 251.446 58.4446 251.199C58.3476 251.087 58.2603 250.966 58.1833 250.839C57.978 250.564 57.7866 250.289 57.5953 250.013C57.5113 249.906 57.4413 249.808 57.3713 249.701L57.0446 249.234C57.0166 249.206 57.0026 249.164 56.9746 249.141L56.2 248.058C58.3298 244.51 60.0626 240.739 61.366 236.811C61.4593 236.522 61.5293 236.233 61.5993 235.943C61.7286 235.381 61.8205 234.81 61.8746 234.235V234.165C61.9675 232.902 61.9157 231.632 61.7206 230.381C61.5433 229.228 61.296 228.047 61.0066 226.885C60.8526 226.293 60.7033 225.714 60.54 225.126L60.0733 223.362C59.6855 221.913 59.3859 220.442 59.1773 218.957C59.154 218.779 59.14 218.597 59.126 218.42L59.0839 218.023C59.0839 217.827 59.0559 217.636 59.0419 217.431C59.0279 217.225 59.0419 217.085 59.0419 216.922V216.852C59.0419 216.437 59.014 216.026 59.014 215.625C59.014 215.223 59.0139 214.827 59.0419 214.43C59.0419 214.248 59.0419 214.057 59.0699 213.879C59.0699 213.562 59.098 213.245 59.126 212.946C59.154 212.647 59.168 212.311 59.1913 212.013C59.2146 211.714 59.2473 211.378 59.2893 211.079C59.3313 210.781 59.3593 210.445 59.3873 210.146C59.4806 209.213 59.6066 208.247 59.7186 207.295C59.7186 207.239 59.7186 207.169 59.7186 207.117C59.7839 206.553 59.8399 205.974 59.9099 205.409V205.381C59.9659 204.803 60.0173 204.238 60.0593 203.659C60.0532 203.614 60.0532 203.569 60.0593 203.524C60.0873 203.001 60.1293 202.479 60.1433 201.956C60.1433 201.858 60.1433 201.76 60.1433 201.667V201.597C60.1433 201.237 60.1433 200.892 60.1433 200.537C60.8153 199.973 61.5059 199.45 62.2199 198.927C64.0987 197.58 65.8926 196.118 67.5913 194.55C67.918 194.247 68.2073 193.929 68.4966 193.617C71.0446 190.756 72.202 187.601 72.916 184.325C74.0313 179.299 74.1153 174.031 76.6213 169.224C76.8266 168.827 77.0459 168.44 77.2933 168.057C77.5709 167.599 77.8747 167.156 78.2033 166.732C78.8286 165.91 79.5081 165.13 80.2379 164.399C81.5535 163.106 82.988 161.941 84.522 160.917C85.4833 160.269 86.5146 159.662 87.5739 159.083C88.6333 158.505 89.7486 157.982 90.8919 157.501C92.0353 157.021 93.2486 156.568 94.4713 156.153C94.8866 156.017 95.2973 155.877 95.7126 155.756C95.7126 155.756 95.7126 155.756 95.7406 155.756C96.9773 155.397 98.2559 155.065 99.5533 154.776C99.9779 154.697 100.417 154.599 100.86 154.515C104.551 153.78 108.312 153.454 112.074 153.544Z" fill="#1E8000"/>
<path opacity="0.67" d="M72.8693 180.813C72.1553 184.08 71.0026 187.239 68.4546 190.105C68.1653 190.422 67.876 190.735 67.5446 191.038C65.8497 192.608 64.0572 194.07 62.178 195.415C61.4313 195.966 60.7033 196.517 60.0033 197.095C59.588 196.423 59.742 195.341 59.1913 194.449C58.7629 193.694 58.3779 192.915 58.0386 192.116C58.0386 192.074 57.8146 191.029 57.7726 191.001C56.4319 189.124 54.9712 187.336 53.4 185.648C50.8006 182.965 46.9786 179.987 46.6613 179.656L46.6333 179.628C46.6333 179.628 47.4126 156.761 60.2926 149.528C71.3713 143.279 72.72 172.46 72.8693 180.813Z" fill="#1E8000"/>
<path opacity="0.67" d="M109.489 177.244C107.505 183.838 96.9166 187.856 95.6239 194.632C94.4806 200.633 101.504 206.233 100.333 212.332C99.11 218.866 89.0439 222.492 85.3573 228.288C82.3286 232.954 83.7473 238.363 82.1746 243.37C80.308 249.437 73.7093 254.757 65.0946 257.277C64.8193 257.356 64.5299 257.44 64.2546 257.51C61.6413 255.485 58.6546 251.91 56.2 248.051C58.3284 244.506 60.0612 240.737 61.366 236.814C63.2326 230.966 59.9659 224.951 59.2006 218.964C58.3093 211.749 61.0066 204.124 59.9613 197.119C62.822 194.818 66.1399 192.672 68.4546 190.119C74.9086 182.895 72.4306 173.66 76.5746 165.731C81.6146 156.052 97.4813 149.295 113.077 150.186C111.601 154.753 110.591 159.458 110.063 164.228C109.596 168.41 110.711 173.128 109.489 177.244Z" stroke="#054A34" stroke-width="4.42" stroke-linecap="round" stroke-linejoin="round"/>
<path opacity="0.67" d="M103.558 157.736C80.3035 181.457 69.3649 231.47 65.1089 257.272C64.7635 259.451 64.4462 261.444 64.1755 263.24" stroke="#054A34" stroke-width="4.42" stroke-linecap="round" stroke-linejoin="round"/>
<path opacity="0.67" d="M59.9333 197.115C62.808 194.782 66.1399 192.645 68.4406 190.073C74.9039 182.845 72.4213 173.614 76.5606 165.685C81.61 156.002 97.4813 149.254 113.077 150.141C111.596 154.705 110.584 159.408 110.058 164.178C109.591 168.415 110.702 173.133 109.484 177.245C107.496 183.853 96.9073 187.857 95.6193 194.637C94.4806 200.629 101.495 206.234 100.333 212.333C99.1006 218.867 89.0486 222.493 85.348 228.284C82.324 232.988 83.7426 238.373 82.1793 243.381C80.28 249.419 73.7093 254.763 65.09 257.273C64.8146 257.362 64.5206 257.446 64.2453 257.521C61.6273 255.491 58.6453 251.921 56.2 248.057" stroke="#054A34" stroke-width="4.42" stroke-linecap="round" stroke-linejoin="round"/>
<path opacity="0.67" d="M103.558 157.736C80.3035 181.457 69.3649 231.47 65.1089 257.272C64.7635 259.451 64.4462 261.444 64.1755 263.24" stroke="#054A34" stroke-width="4.42" stroke-linecap="round" stroke-linejoin="round"/>
<path d="M87.0001 272.074L80.4947 308.442C80.3137 309.462 79.7793 310.387 78.9846 311.052C78.1903 311.718 77.1865 312.082 76.1501 312.082H42.2001C41.1533 312.082 40.1402 311.711 39.3422 311.034C38.5437 310.357 38.0117 309.419 37.8414 308.386L31.8447 272.074H87.0001Z" stroke="white" stroke-width="4.42" stroke-linecap="round" stroke-linejoin="round"/>
<path d="M93.1927 268.02C93.1036 269.125 92.601 270.156 91.7852 270.908C90.97 271.66 89.9008 272.076 88.792 272.075H30.1507C29.0526 272.074 27.9942 271.665 27.1813 270.926C26.3688 270.188 25.8602 269.174 25.7547 268.081C25.6969 267.468 25.7675 266.851 25.9621 266.267C26.1567 265.683 26.471 265.147 26.8845 264.692C27.2984 264.237 27.8029 263.873 28.3652 263.625C28.9276 263.375 29.5356 263.247 30.1507 263.246H88.792C89.402 263.246 90.0054 263.372 90.5644 263.617C91.123 263.862 91.6252 264.22 92.0386 264.669C92.4521 265.117 92.768 265.647 92.9668 266.223C93.1656 266.8 93.2422 267.412 93.1927 268.02Z" stroke="white" stroke-width="4.42" stroke-linecap="round" stroke-linejoin="round"/>
<g opacity="0.36">
<path opacity="0.36" d="M61.8747 234.153V234.181C61.8047 235.07 61.6339 235.949 61.366 236.799C60.0626 240.727 58.3299 244.499 56.2 248.046L56.9187 249.147L49.4147 258.616C49.3022 258.584 49.1916 258.547 49.0833 258.504C48.878 258.439 48.6727 258.369 48.4673 258.285C48.1841 258.19 47.9078 258.074 47.6413 257.939L46.8013 255.228C46.6128 255.152 46.4294 255.064 46.2507 254.967C45.784 254.761 45.3173 254.528 44.902 254.295C44.4867 254.061 44.034 253.828 43.6047 253.562C41.9433 252.581 40.3926 251.423 38.98 250.109C38.6393 249.791 38.294 249.46 37.9767 249.133C37.1082 248.242 36.3167 247.279 35.6107 246.254C35.5141 246.133 35.4268 246.005 35.3493 245.871C34.6073 244.773 33.9815 243.6 33.4827 242.371C33.3427 242.045 33.2213 241.713 33.1093 241.382C32.9437 240.946 32.8046 240.501 32.694 240.047C31.182 234.251 32.5447 228.003 29.656 222.566C28.6867 220.851 27.4818 219.28 26.0767 217.899C25.8947 217.708 25.7173 217.526 25.526 217.349C25.0593 216.882 24.5927 216.453 24.126 216.014C22.726 214.693 21.2327 213.382 19.898 212.019C17.602 209.686 15.726 207.147 15.2313 204.086C15.2033 203.937 15.1893 203.773 15.1753 203.619C15.782 197.758 20.4627 192.223 19.8047 186.385C19.7938 186.238 19.7751 186.092 19.7487 185.947C18.5073 178.102 8.334 173.459 6.43467 165.796C5.93911 163.498 5.75394 161.143 5.884 158.796C5.912 156.663 6.038 154.503 5.968 152.421C5.968 151.833 5.94 151.255 5.884 150.676C5.39605 145.177 4.43108 139.731 3 134.399C3.19133 134.399 3.40133 134.371 3.59267 134.371C18.3767 133.573 33.296 141.338 38.0887 152.403C42.0647 161.587 40.422 171.27 46.6427 179.628L46.6707 179.656C48.2107 181.719 51.0153 183.651 53.008 185.48C54.6535 186.975 56.1375 188.637 57.4367 190.441C57.4787 190.469 59.4153 191.579 58.0387 191.785C58.2813 192.079 58.5016 192.391 58.6967 192.718C58.944 193.119 58.23 194.118 58.4167 194.496C58.4167 194.496 59.1633 193.866 59.1633 193.88C59.9473 195.476 59.7 197.772 59.9613 199.438C60.0813 200.238 60.1545 201.043 60.1807 201.851C60.0033 206.774 58.86 211.87 59.0513 216.812V216.882C58.9771 218.346 59.0271 219.813 59.2007 221.269C59.742 225.613 61.5713 229.902 61.8747 234.153Z" fill="#3FBDF1"/>
<path opacity="0.36" d="M59.0514 216.84C58.86 211.898 59.9847 206.802 60.1807 201.879C60.4 206.751 59.2147 211.842 59.0514 216.84Z" fill="#3FBDF1"/>
<path opacity="0.36" d="M61.366 239.149C60.2142 242.622 58.7246 245.975 56.9186 249.159L56.2 248.062C58.3298 244.514 60.0626 240.742 61.366 236.815C61.6338 235.965 61.8046 235.086 61.8746 234.197C62.024 235.865 61.8513 237.546 61.366 239.149Z" fill="#3FBDF1"/>
<path opacity="0.36" d="M49.9934 263.237L47.6601 257.954L46.8201 255.243V255.215L12.1887 143.215C33.8934 169.946 44.4401 225.516 48.7754 256.046C48.8968 256.886 49.0088 257.712 49.1161 258.51C49.2701 259.583 49.4054 260.633 49.5314 261.636C49.6668 263.05 49.8581 262.014 49.9934 263.237Z" fill="#3FBDF1"/>
</g>
<path opacity="0.67" d="M61.8746 234.153C61.806 235.047 61.6352 235.93 61.3659 236.785C60.0597 240.72 58.3275 244.501 56.1999 248.06C55.4719 249.296 54.7159 250.482 53.9459 251.583C53.5306 252.162 53.1199 252.726 52.7186 253.263C52.4573 253.618 52.1819 253.949 51.9066 254.28C51.6313 254.612 51.3559 254.924 51.0946 255.214C50.9733 255.382 50.8193 255.531 50.6839 255.68C50.4226 255.942 50.1613 256.203 49.9093 256.436C49.6339 256.338 49.3586 256.259 49.0833 256.147C48.9657 256.117 48.8513 256.075 48.7426 256.021C48.3693 255.9 47.9959 255.746 47.6413 255.596L47.4593 255.512C47.2399 255.433 47.0206 255.335 46.8013 255.237C46.6127 255.16 46.4293 255.073 46.2506 254.976C45.7839 254.77 45.3173 254.537 44.9019 254.304C44.4866 254.07 44.0339 253.837 43.6046 253.571C41.9433 252.59 40.3925 251.432 38.9799 250.118C38.6393 249.8 38.2939 249.469 37.9766 249.142C37.1081 248.251 36.3167 247.288 35.6106 246.263C35.514 246.142 35.4267 246.014 35.3493 245.88C34.6073 244.781 33.9815 243.609 33.4826 242.38C33.3426 242.054 33.2213 241.722 33.1093 241.391C32.9436 240.955 32.8045 240.51 32.6939 240.056C31.1819 234.26 32.5446 228.012 29.6559 222.575C28.6867 220.86 27.4817 219.289 26.0766 217.908C25.8946 217.717 25.7173 217.535 25.5259 217.358C23.7059 215.552 21.6853 213.834 19.9259 212.028C17.6299 209.695 15.7539 207.156 15.2593 204.095C15.2313 203.946 15.2173 203.782 15.2033 203.628C14.5593 197.697 19.2259 192.148 19.8326 186.394C19.9357 185.462 19.9168 184.521 19.7766 183.594C18.5353 175.75 8.36194 171.111 6.46261 163.444C6.10505 161.914 5.92034 160.348 5.91194 158.777C5.84661 156.672 5.96794 154.526 5.99594 152.402C6.05241 151.035 6.02436 149.664 5.91194 148.3C5.49199 143.606 4.7198 138.949 3.60194 134.37C3.42461 133.6 3.21461 132.816 3.00928 132.037C13.1406 131.337 23.4073 134.692 30.4819 140.404C31.4153 141.166 32.2833 141.952 33.0859 142.761C35.1887 144.86 36.8874 147.327 38.0979 150.041C42.0739 159.22 39.6799 169.93 45.9006 178.288C47.0075 179.723 48.2381 181.059 49.5779 182.278C50.1146 182.787 50.6513 183.282 51.2019 183.795C52.3033 184.798 53.4046 185.802 54.4219 186.833C55.6913 188.076 56.8183 189.456 57.7819 190.949C57.9453 191.224 58.1086 191.514 58.2486 191.803C58.3606 192.013 58.4679 192.232 58.5659 192.452C58.6639 192.671 58.7993 192.946 58.8973 193.208C58.9953 193.469 59.0746 193.674 59.1586 193.884C59.1586 193.912 59.1586 193.94 59.1866 193.964C59.2659 194.216 59.3499 194.463 59.4199 194.71C59.4899 194.958 59.5693 195.247 59.6393 195.522C59.7093 195.798 59.7466 195.989 59.7886 196.208C59.8306 196.428 59.9146 196.801 59.9566 197.09C60.175 198.669 60.2483 200.263 60.1759 201.855C60.0126 206.783 58.8553 211.874 59.0466 216.83C59.0466 217.544 59.1166 218.23 59.1959 218.935C59.8493 224.036 62.2993 229.16 61.8746 234.153Z" stroke="#054A34" stroke-width="4.42" stroke-linecap="round" stroke-linejoin="round"/>
<path opacity="0.67" d="M12.1467 140.828C34.472 168.305 44.9767 226.228 49.0833 256.141C49.4333 258.731 49.7507 261.111 50.0167 263.239" stroke="#054A34" stroke-width="4.42" stroke-linecap="round" stroke-linejoin="round"/>
<path opacity="0.67" d="M109.489 177.252C107.505 183.842 96.9166 187.864 95.6239 194.636C94.4806 200.637 101.504 206.242 100.333 212.336C99.1099 218.87 89.0439 222.496 85.3573 228.292C82.3286 232.986 83.7473 238.367 82.1746 243.379C80.4013 249.077 74.4419 254.154 66.5553 256.814C66.0886 256.978 65.5893 257.127 65.1086 257.281C64.8333 257.365 64.5439 257.444 64.2686 257.514C61.9026 255.685 59.2286 252.586 56.9326 249.161L56.1999 248.06C55.4719 249.296 54.7159 250.482 53.9459 251.583C53.5306 252.162 53.1199 252.726 52.7186 253.263C52.4573 253.618 52.1819 253.949 51.9066 254.28C51.6313 254.612 51.3559 254.924 51.0946 255.214C50.9733 255.382 50.8193 255.531 50.6839 255.68C50.4226 255.956 50.1613 256.217 49.9093 256.45C49.6339 256.352 49.3586 256.273 49.0833 256.161L48.7426 256.035C48.3674 255.91 47.9997 255.764 47.6413 255.596L47.4593 255.512C47.2283 255.427 47.0038 255.326 46.7873 255.209C46.6099 255.144 46.4279 255.06 46.2506 254.976C45.7839 254.77 45.3173 254.537 44.9019 254.304C44.4866 254.07 44.0339 253.837 43.6046 253.571C41.9433 252.59 40.3925 251.432 38.9799 250.118C38.6393 249.8 38.2939 249.469 37.9766 249.142C37.1081 248.251 36.3167 247.288 35.6106 246.263C35.514 246.142 35.4267 246.014 35.3493 245.88C34.6073 244.781 33.9815 243.609 33.4826 242.38C33.3426 242.054 33.2213 241.722 33.1093 241.391C32.9436 240.955 32.8045 240.51 32.6939 240.056C31.1819 234.26 32.5446 228.012 29.6559 222.575C28.6867 220.86 27.4817 219.289 26.0766 217.908C25.8946 217.717 25.7173 217.535 25.5259 217.358C23.7059 215.566 21.6853 213.848 19.9259 212.028C17.6299 209.695 15.7539 207.156 15.2593 204.095C15.2313 203.946 15.2173 203.782 15.2033 203.628C14.5593 197.697 19.2259 192.148 19.8326 186.394C19.9357 185.462 19.9168 184.521 19.7766 183.594C18.5353 175.75 8.36194 171.111 6.46261 163.444C6.10505 161.914 5.92034 160.348 5.91194 158.777C5.84661 156.672 5.96794 154.526 5.99594 152.402C6.05241 151.035 6.02436 149.664 5.91194 148.3C5.49199 143.606 4.7198 138.949 3.60194 134.37C3.42461 133.6 3.21461 132.816 3.00928 132.037C13.1406 131.337 23.4073 134.692 30.4819 140.404C31.3943 141.139 32.2637 141.926 33.0859 142.761C35.1887 144.86 36.8874 147.327 38.0979 150.041C42.0739 159.22 39.6799 169.93 45.9006 178.288C47.0075 179.723 48.2381 181.059 49.5779 182.278C50.1146 182.787 50.6513 183.296 51.2019 183.795C52.3033 184.798 53.4046 185.802 54.4219 186.833C55.6913 188.076 56.8183 189.456 57.7819 190.949C57.9453 191.224 58.1086 191.514 58.2486 191.803C58.3606 192.013 58.4679 192.232 58.5659 192.452C58.6639 192.671 58.7993 192.946 58.8973 193.208C58.9953 193.469 59.0746 193.674 59.1586 193.884C59.1586 193.912 59.1586 193.94 59.1866 193.964C59.2659 194.216 59.3499 194.463 59.4199 194.71C59.4899 194.958 59.5693 195.247 59.6393 195.522C59.7093 195.798 59.7466 195.989 59.7886 196.208C59.8306 196.428 59.9146 196.801 59.9566 197.09C62.8173 194.79 66.1353 192.643 68.4499 190.09C74.9039 182.862 72.4259 173.626 76.5699 165.698C81.6099 156.019 97.4766 149.262 113.073 150.158C111.597 154.723 110.587 159.426 110.058 164.195C109.596 168.414 110.711 173.136 109.489 177.252Z" stroke="#054A34" stroke-width="4.42" stroke-linecap="round" stroke-linejoin="round"/>
<g opacity="0.67">
<path d="M45.8865 178.298C45.8865 178.298 47.4218 154.418 60.3018 147.162C73.1818 139.905 72.9018 180.603 72.9018 180.603" fill="#1E8000"/>
<path d="M45.8865 178.298C45.8865 178.298 47.4218 154.418 60.3018 147.162C73.1818 139.905 72.9018 180.603 72.9018 180.603" stroke="#054A34" stroke-width="4.42" stroke-linecap="round" stroke-linejoin="round"/>
</g>
<path opacity="0.67" d="M59.9333 197.115C59.9333 197.115 57.3013 183.456 61.9166 170.049" stroke="#054A34" stroke-width="4.42" stroke-linecap="round" stroke-linejoin="round"/>
</g>
<path d="M332.593 302.598L332.579 302.612" stroke="#CCDDE2" stroke-width="4.42" stroke-miterlimit="10"/>
<path d="M201.333 68.2137C201.333 68.2137 211.838 61.4424 207.4 54.2417C202.962 47.0411 201.333 68.2137 201.333 68.2137Z" fill="#03A071"/>
<path d="M309.866 111.745C303.986 114.76 297.653 114.545 291.587 112.24C286.08 110.135 281.166 106.678 276.747 102.837L246.88 80.2082C240.431 76.3003 234.642 71.3933 229.73 65.6715C222.697 57.4255 211.353 55.6242 208.669 55.3068L206.742 51.6062C210.335 50.1455 214.092 48.2602 217.942 47.7515C225.637 46.7062 233.715 49.9682 239.32 55.1015C242.428 57.9622 245.144 61.2522 248.238 64.1315C255.975 71.3415 266.989 73.9315 277.171 76.1435C282.305 77.2588 287.961 77.6135 293.178 78.1502C298.363 78.6649 303.418 80.0868 308.111 82.3502C311.196 83.7828 313.179 86.5782 315.578 89.3035C317.415 91.8314 318.519 94.8172 318.77 97.9322C319.129 104.017 315.069 109.057 309.866 111.745Z" fill="#03A071"/>
<path d="M201.333 68.2153C199.916 69.0389 198.241 69.3035 196.639 68.9573H196.597C196.13 68.8219 195.663 68.7099 195.262 68.6259C195.083 68.5863 194.909 68.5317 194.739 68.4626C190.045 66.7546 187.305 67.4173 188.206 72.4293C189.251 78.3326 181.542 79.1026 176.465 78.1926C167.505 74.1606 165.05 58.4293 172.157 48.7366C172.335 48.4893 172.54 48.2279 172.745 47.9666C172.951 47.7053 173.175 47.4579 173.394 47.2106C173.924 46.6343 174.49 46.092 175.088 45.5866C175.293 45.4046 175.499 45.2273 175.718 45.0639C175.937 44.9006 176.245 44.6626 176.507 44.4713C176.76 44.2701 177.027 44.0863 177.305 43.9206C179.708 42.3386 182.407 41.2629 185.239 40.7589C188.072 40.2549 190.977 40.3338 193.778 40.9899L193.923 41.0319C194.898 41.3973 195.849 41.8243 196.769 42.3106C197.034 42.4431 197.291 42.5897 197.539 42.7493C197.648 42.8029 197.754 42.8617 197.857 42.9266C198.104 43.0806 198.351 43.2299 198.599 43.3933C199.093 43.7106 199.588 44.0513 200.059 44.4246C201.775 45.7392 203.295 47.2913 204.572 49.0353C204.79 49.3227 204.993 49.6219 205.179 49.9313C205.329 50.1375 205.466 50.3522 205.589 50.5753C205.781 50.8786 205.963 51.182 206.126 51.5086C206.289 51.8353 206.527 52.2646 206.705 52.6519C206.845 52.9553 206.98 53.2586 207.106 53.5853C207.199 53.8186 207.297 54.0519 207.381 54.2713C207.66 55.003 207.89 55.7529 208.067 56.5159C208.125 56.7003 208.167 56.8893 208.193 57.0806C208.258 57.3009 208.308 57.5253 208.343 57.7526C208.385 57.9719 208.427 58.2193 208.469 58.4433L201.333 68.2153Z" fill="#03A071"/>
<path d="M205.118 49.556C208.707 48.0906 212.463 46.21 216.318 45.692C224.004 44.656 232.096 47.9133 237.687 53.0466C240.809 55.912 243.515 59.1973 246.614 62.086C254.356 69.2773 264.389 73.23 274.6 75.456C279.726 76.533 284.908 77.3245 290.121 77.8266C295.535 78.3913 300.43 78.5546 305.442 80.8926C311.975 83.9166 318.271 90.4033 318.751 97.9166C319.139 104.011 315.079 109.047 309.885 111.721C304 114.735 297.658 114.544 291.582 112.211C286.075 110.106 281.161 106.653 276.737 102.798" stroke="#054A34" stroke-width="4.42" stroke-miterlimit="10"/>
<path d="M169.199 47.867C169.381 47.6197 169.586 47.3583 169.791 47.097C169.997 46.8357 170.221 46.5883 170.44 46.341C171.161 45.5654 171.941 44.8477 172.773 44.1943C173.035 43.9843 173.296 43.793 173.557 43.6017L173.725 43.4757C173.945 43.3263 174.15 43.1723 174.369 43.051C180.413 39.061 187.571 38.6877 193.778 40.9743C194.049 41.0593 194.316 41.1587 194.576 41.273C195.324 41.5726 196.055 41.9137 196.765 42.295C197.031 42.4266 197.29 42.5727 197.539 42.7337C197.648 42.7869 197.754 42.8461 197.857 42.911C198.118 43.065 198.365 43.2143 198.599 43.3777C199.102 43.6959 199.588 44.0399 200.055 44.409C201.773 45.7222 203.294 47.2748 204.572 49.0197C204.79 49.3071 204.993 49.6063 205.179 49.9157C205.329 50.1215 205.466 50.3366 205.589 50.5597C205.785 50.863 205.963 51.1663 206.126 51.493C206.289 51.8197 206.527 52.249 206.705 52.6363C206.845 52.9397 206.98 53.243 207.106 53.5697C207.199 53.803 207.297 54.0363 207.381 54.2557C207.66 54.9874 207.89 55.7373 208.067 56.5003C208.125 56.6847 208.167 56.8737 208.193 57.065C208.256 57.2857 208.306 57.5102 208.343 57.737C208.385 57.9563 208.427 58.2037 208.469 58.4277C208.511 58.6517 208.534 58.9223 208.562 59.1837" stroke="#054A34" stroke-width="4.42" stroke-miterlimit="10"/>
<path d="M235.451 303.244H271.333L271.8 312.778H224.783C224.783 312.778 216.472 307.108 225.964 303.244H235.451Z" fill="#1D523E"/>
<path d="M191.533 126.273C191.533 126.273 216.542 109.165 246.88 140.347C246.88 140.347 242.787 165.001 229.716 175.38C229.716 175.38 306.497 164.091 314.57 192.474C314.57 192.474 317.239 143.007 275.319 101.395C233.398 59.7819 209.15 73.9779 201.324 95.7946C193.498 117.611 194.291 108.782 191.533 126.273Z" fill="white"/>
<path d="M357.251 302.464V260.963L371.186 261.43V312.763H347.638C347.638 312.763 344.455 307.98 349.402 306.43C354.349 304.881 357.251 307.28 357.251 302.464Z" fill="#1D523E"/>
<path d="M238.895 76.127C283.607 96.987 314.584 142.347 314.584 194.936C314.624 221.806 306.364 248.033 290.933 270.032C288.375 273.681 285.636 277.199 282.725 280.574" stroke="#054A34" stroke-width="4.42" stroke-linecap="round" stroke-linejoin="round"/>
<path d="M266.163 173.419C266.163 173.419 179.442 168.682 179.829 212.927C179.979 221.506 183.305 229.724 189.163 235.994L238.443 289.661C241.322 292.787 242.932 295.303 243.795 297.272C244.077 297.923 244.192 298.633 244.13 299.339C244.068 300.045 243.831 300.725 243.44 301.316C243.05 301.908 242.518 302.393 241.893 302.727C241.268 303.062 240.57 303.235 239.861 303.231H225.968C224.702 303.237 223.49 303.742 222.595 304.637C221.7 305.532 221.195 306.745 221.19 308.01C221.19 308.637 221.314 309.257 221.555 309.836C221.796 310.414 222.148 310.939 222.592 311.381C223.036 311.824 223.562 312.174 224.142 312.412C224.721 312.651 225.342 312.772 225.968 312.77H271.8C271.375 278.633 258.215 254.712 247.174 240.6C243.729 236.169 239.917 232.035 235.778 228.243" stroke="#054A34" stroke-width="4.42" stroke-linecap="round" stroke-linejoin="round"/>
<path d="M290.933 270.029C290.933 270.029 325.336 258.498 371.2 261.433V312.767H349.798C348.954 312.767 348.145 312.431 347.548 311.834C346.951 311.238 346.616 310.428 346.616 309.584C346.616 308.806 346.901 308.055 347.417 307.473C347.932 306.891 348.643 306.518 349.416 306.425L354.311 305.804C355.127 305.702 355.878 305.304 356.422 304.687C356.966 304.071 357.266 303.276 357.265 302.453C357.265 301.963 357.158 301.478 356.952 301.033C356.745 300.588 356.445 300.193 356.07 299.876C355.696 299.559 355.257 299.327 354.784 299.197C354.311 299.066 353.815 299.041 353.331 299.122L271.8 312.776" stroke="#054A34" stroke-width="4.42" stroke-linecap="round" stroke-linejoin="round"/>
<path d="M247.165 240.619C249.792 235.294 252.121 230.945 253.609 228.262" stroke="#054A34" stroke-width="4.42" stroke-linecap="round" stroke-linejoin="round"/>
<path d="M230.967 303.241C229.151 297.608 229.646 290.132 231.433 282.045" stroke="#054A34" stroke-width="4.42" stroke-linecap="round" stroke-linejoin="round"/>
<path d="M77.2374 309.765C77.2411 310.205 77.1506 310.641 76.9719 311.043C76.7931 311.446 76.5304 311.805 76.2014 312.098L77.2234 309.471C77.2346 309.568 77.2393 309.667 77.2374 309.765Z" fill="#054A34"/>
<path d="M77.2374 309.765C77.2411 310.205 77.1506 310.641 76.9719 311.043C76.7931 311.446 76.5304 311.805 76.2014 312.098L77.2234 309.471C77.2346 309.568 77.2393 309.667 77.2374 309.765Z" fill="#054A34"/>
<path d="M111.784 239.146C111.691 239.393 111.593 239.655 111.495 239.902C111.487 239.946 111.473 239.988 111.453 240.028C111.044 240.947 110.893 241.96 111.015 242.959C111.206 243.99 111.98 245.53 113.054 245.791C116.19 246.58 117.721 244.391 118.752 241.899C119.382 240.383 119.853 238.759 120.404 237.615C121.105 236.165 122.087 234.87 123.293 233.803" stroke="#054A34" stroke-width="4.42" stroke-linecap="round" stroke-linejoin="round"/>
<path d="M111.939 238.678C111.897 238.832 111.841 238.967 111.785 239.145C111.702 239.402 111.606 239.654 111.495 239.901C111.487 239.944 111.473 239.987 111.453 240.027C110.548 242.131 108.989 244.031 106.623 244.362C103.954 244.717 102.274 240.465 104.724 236.116C104.721 236.107 104.721 236.097 104.724 236.088" stroke="#054A34" stroke-width="4.42" stroke-linecap="round" stroke-linejoin="round"/>
<path d="M118.051 241.95C118.051 241.95 117.295 247.55 121.589 247.083C126.573 246.547 125.07 240.779 131.459 236" stroke="#054A34" stroke-width="4.42" stroke-linecap="round" stroke-linejoin="round"/>
<path d="M127.796 241.557C128.51 243.251 129.999 244.282 131.856 244.063C134.497 243.732 135.986 241.445 137.773 239.765C137.829 239.728 137.871 239.672 137.927 239.63C138.965 238.685 140.2 237.984 141.542 237.577C142.885 237.17 144.301 237.068 145.688 237.278C145.688 237.278 161.531 241.515 183.707 228.262" stroke="#054A34" stroke-width="4.42" stroke-linecap="round" stroke-linejoin="round"/>
<path d="M231.914 175.059C243.106 158.747 249.086 139.425 249.064 119.643" stroke="#054A34" stroke-width="4.42" stroke-linecap="round" stroke-linejoin="round"/>
<path d="M111.939 238.679C111.939 238.679 113.549 235.09 115.831 233.396" stroke="#054A34" stroke-width="4.42" stroke-linecap="round" stroke-linejoin="round"/>
<path d="M208.459 58.4141L238.89 76.1474C198.757 63.8974 189.643 127.821 187.557 156.12C187.557 156.12 185.69 196.463 145.888 215.018L140.083 217.669C135.031 219.95 129.781 221.767 124.398 223.096C107.22 227.399 104.733 236.102 104.733 236.102" stroke="#054A34" stroke-width="4.42" stroke-linecap="round" stroke-linejoin="round"/>
<path d="M204.824 89.686L201.147 84.1934" stroke="#054A34" stroke-width="4.42" stroke-linecap="round" stroke-linejoin="round"/>
<path d="M176.441 78.1778L183.478 84.9771C183.573 85.07 183.687 85.1419 183.812 85.1871C183.937 85.2329 184.07 85.2511 184.203 85.2408C184.335 85.2305 184.464 85.1923 184.581 85.1283C184.697 85.0644 184.799 84.9762 184.878 84.8698L185.704 83.7638C185.83 83.7638 202.29 92.6305 204.147 77.2305" stroke="#054A34" stroke-width="4.42" stroke-linecap="round" stroke-linejoin="round"/>
<path d="M208.058 55.2188C208.058 55.2188 221.685 56.2547 229.716 65.6581C234.628 71.3789 240.419 76.2827 246.871 80.1854" stroke="#054A34" stroke-width="4.42" stroke-miterlimit="10"/>
<path d="M174.356 43.0527C161.35 51.1121 162.838 72.6394 173.59 77.3761C177.692 79.1867 189.457 79.6301 188.183 72.4107C187.287 67.4081 190.05 66.7454 194.716 68.4487C197.624 69.4987 200.811 69.3401 203.116 67.1047C203.572 66.6628 203.979 66.1728 204.33 65.6441" fill="#03A071"/>
<path d="M174.356 43.0527C161.35 51.1121 162.838 72.6394 173.59 77.3761C177.692 79.1867 189.457 79.6301 188.183 72.4107C187.287 67.4081 190.05 66.7454 194.716 68.4487C197.624 69.4987 200.811 69.3401 203.116 67.1047C203.572 66.6628 203.979 66.1728 204.33 65.6441" stroke="#054A34" stroke-width="4.42" stroke-miterlimit="10"/>
<path d="M314.561 195.471C314.561 204.164 311.107 212.502 304.96 218.649C298.813 224.796 290.475 228.249 281.782 228.249H223.267" stroke="#054A34" stroke-width="4.42" stroke-linecap="round" stroke-linejoin="round"/>
<path d="M225.353 275.428C225.353 275.428 220.933 290.865 223.267 295.466C225.6 300.068 229.403 296.432 229.8 292.643" stroke="#054A34" stroke-width="4.42" stroke-linecap="round" stroke-linejoin="round"/>
</svg>
