<svg width="279" height="370" viewBox="0 0 279 370" fill="none" xmlns="http://www.w3.org/2000/svg">
<path d="M163.546 263.251C159.959 256.078 149.917 252.492 143.226 254.644V282.722L163.546 263.251Z" fill="white"/>
<path d="M170.719 255.361C165.698 246.753 153.269 242.449 143.226 245.319V220.213C162.828 215.909 180.761 224.594 188.651 241.015L170.719 255.361Z" fill="white"/>
<path d="M195.107 238.146C192.238 221.647 166.415 203.715 142.744 210.888V177.175C191.521 157.807 223.799 199.411 226.669 218.778L195.107 238.146Z" fill="white"/>
<path d="M235.994 214.839C228.82 168.567 180.761 149.2 143.226 164.859V40.2824C143.226 13.4275 154.167 2.23791 159.638 0C151.88 10.1452 154.913 24.617 157.4 30.5848C182.763 68.6292 205.142 67.1373 209.618 122.339C251.989 159.339 253.63 195.471 248.905 210.888L235.994 214.839Z" fill="white"/>
<path d="M115.626 302.116C48.4885 314.052 32.0772 255.866 34.3151 226.027C40.2828 226.027 39.5369 234.979 66.3918 240.201C93.2467 245.423 115.626 274.516 115.626 302.116Z" fill="white"/>
<path d="M99.2144 240.201C70.8676 227.519 77.5813 194.697 79.0732 191.713C141.735 208.423 135.021 263.326 123.831 288.689C125.075 276.753 121.892 250.346 99.2144 240.201Z" fill="white"/>
<path d="M161.13 281.975C116.371 322.556 82.3054 315.792 70.8672 307.338C151.432 401.032 264.819 302.862 255.868 226.773C242.938 228.265 205.888 241.394 161.13 281.975Z" fill="white"/>
<path fill-rule="evenodd" clip-rule="evenodd" d="M278.408 277.662C254.648 324.486 206.042 356.574 149.94 356.574C70.4268 356.574 5.96825 292.116 5.96825 212.602C5.96825 194.405 9.34421 176.997 15.504 160.969C5.58838 180.509 0 202.617 0 226.029C0 305.542 64.4585 370.001 143.972 370.001C205.289 370.001 257.652 331.67 278.408 277.662Z" fill="white"/>
</svg>
