<svg width="947" height="370" viewBox="0 0 947 370" fill="none" xmlns="http://www.w3.org/2000/svg">
<path d="M163.546 263.251C159.959 256.078 149.917 252.492 143.226 254.644V282.722L163.546 263.251Z" fill="white"/>
<path d="M170.719 255.361C165.698 246.753 153.269 242.449 143.226 245.319V220.213C162.828 215.909 180.761 224.594 188.651 241.015L170.719 255.361Z" fill="white"/>
<path d="M195.107 238.146C192.238 221.647 166.415 203.715 142.744 210.888V177.175C191.521 157.807 223.799 199.411 226.669 218.778L195.107 238.146Z" fill="white"/>
<path d="M235.994 214.839C228.82 168.567 180.761 149.2 143.226 164.859V40.2824C143.226 13.4275 154.167 2.23791 159.638 0C151.88 10.1452 154.913 24.617 157.4 30.5848C182.763 68.6292 205.142 67.1373 209.618 122.339C251.989 159.339 253.63 195.471 248.905 210.888L235.994 214.839Z" fill="white"/>
<path d="M115.626 302.116C48.4885 314.052 32.0771 255.866 34.3151 226.027C40.2828 226.027 39.5368 234.979 66.3917 240.201C93.2466 245.423 115.626 274.516 115.626 302.116Z" fill="white"/>
<path d="M99.2144 240.201C70.8676 227.519 77.5813 194.697 79.0732 191.713C141.735 208.423 135.021 263.326 123.831 288.689C125.075 276.753 121.892 250.346 99.2144 240.201Z" fill="white"/>
<path d="M161.129 281.975C116.371 322.556 82.3054 315.792 70.8672 307.338C151.432 401.032 264.819 302.862 255.868 226.773C242.937 228.265 205.888 241.394 161.129 281.975Z" fill="white"/>
<path fill-rule="evenodd" clip-rule="evenodd" d="M278.408 277.662C254.648 324.486 206.042 356.574 149.94 356.574C70.4268 356.574 5.96825 292.116 5.96825 212.602C5.96825 194.405 9.34421 176.997 15.504 160.969C5.58838 180.509 0 202.617 0 226.029C0 305.542 64.4585 370.001 143.972 370.001C205.289 370.001 257.652 331.67 278.408 277.662Z" fill="white"/>
<path d="M380.364 108.818C380.061 105.485 378.712 102.894 376.318 101.045C373.955 99.1667 370.576 98.2273 366.182 98.2273C363.273 98.2273 360.848 98.6061 358.909 99.3636C356.97 100.121 355.515 101.167 354.545 102.5C353.576 103.803 353.076 105.303 353.045 107C352.985 108.394 353.258 109.621 353.864 110.682C354.5 111.742 355.409 112.682 356.591 113.5C357.803 114.288 359.258 114.985 360.955 115.591C362.652 116.197 364.561 116.727 366.682 117.182L374.682 119C379.288 120 383.348 121.333 386.864 123C390.409 124.667 393.379 126.652 395.773 128.955C398.197 131.258 400.03 133.909 401.273 136.909C402.515 139.909 403.152 143.273 403.182 147C403.152 152.879 401.667 157.924 398.727 162.136C395.788 166.348 391.561 169.576 386.045 171.818C380.561 174.061 373.939 175.182 366.182 175.182C358.394 175.182 351.606 174.015 345.818 171.682C340.03 169.348 335.53 165.803 332.318 161.045C329.106 156.288 327.455 150.273 327.364 143H348.909C349.091 146 349.894 148.5 351.318 150.5C352.742 152.5 354.697 154.015 357.182 155.045C359.697 156.076 362.606 156.591 365.909 156.591C368.939 156.591 371.515 156.182 373.636 155.364C375.788 154.545 377.439 153.409 378.591 151.955C379.742 150.5 380.333 148.833 380.364 146.955C380.333 145.197 379.788 143.697 378.727 142.455C377.667 141.182 376.03 140.091 373.818 139.182C371.636 138.242 368.848 137.379 365.455 136.591L355.727 134.318C347.667 132.47 341.318 129.485 336.682 125.364C332.045 121.212 329.742 115.606 329.773 108.545C329.742 102.788 331.288 97.7424 334.409 93.4091C337.53 89.0758 341.848 85.697 347.364 83.2727C352.879 80.8485 359.167 79.6364 366.227 79.6364C373.439 79.6364 379.697 80.8636 385 83.3182C390.333 85.7424 394.47 89.1515 397.409 93.5455C400.348 97.9394 401.848 103.03 401.909 108.818H380.364ZM414.545 174V104.182H435.682V117H436.455C437.909 112.758 440.364 109.409 443.818 106.955C447.273 104.5 451.394 103.273 456.182 103.273C461.03 103.273 465.182 104.515 468.636 107C472.091 109.485 474.288 112.818 475.227 117H475.955C477.258 112.848 479.803 109.53 483.591 107.045C487.379 104.53 491.848 103.273 497 103.273C503.606 103.273 508.97 105.394 513.091 109.636C517.212 113.848 519.273 119.636 519.273 127V174H497.045V132.091C497.045 128.606 496.152 125.955 494.364 124.136C492.576 122.288 490.258 121.364 487.409 121.364C484.348 121.364 481.939 122.364 480.182 124.364C478.455 126.333 477.591 128.985 477.591 132.318V174H456.227V131.864C456.227 128.621 455.348 126.061 453.591 124.182C451.833 122.303 449.515 121.364 446.636 121.364C444.697 121.364 442.985 121.833 441.5 122.773C440.015 123.682 438.848 124.985 438 126.682C437.182 128.379 436.773 130.379 436.773 132.682V174H414.545ZM552.727 175.182C548.273 175.182 544.318 174.439 540.864 172.955C537.439 171.439 534.727 169.167 532.727 166.136C530.758 163.076 529.773 159.242 529.773 154.636C529.773 150.758 530.455 147.485 531.818 144.818C533.182 142.152 535.061 139.985 537.455 138.318C539.848 136.652 542.606 135.394 545.727 134.545C548.848 133.667 552.182 133.076 555.727 132.773C559.697 132.409 562.894 132.03 565.318 131.636C567.742 131.212 569.5 130.621 570.591 129.864C571.712 129.076 572.273 127.97 572.273 126.545V126.318C572.273 123.985 571.47 122.182 569.864 120.909C568.258 119.636 566.091 119 563.364 119C560.424 119 558.061 119.636 556.273 120.909C554.485 122.182 553.348 123.939 552.864 126.182L532.364 125.455C532.97 121.212 534.53 117.424 537.045 114.091C539.591 110.727 543.076 108.091 547.5 106.182C551.955 104.242 557.303 103.273 563.545 103.273C568 103.273 572.106 103.803 575.864 104.864C579.621 105.894 582.894 107.409 585.682 109.409C588.47 111.379 590.621 113.803 592.136 116.682C593.682 119.561 594.455 122.848 594.455 126.545V174H573.545V164.273H573C571.758 166.636 570.167 168.636 568.227 170.273C566.318 171.909 564.061 173.136 561.455 173.955C558.879 174.773 555.97 175.182 552.727 175.182ZM559.591 160.636C561.985 160.636 564.136 160.152 566.045 159.182C567.985 158.212 569.53 156.879 570.682 155.182C571.833 153.455 572.409 151.455 572.409 149.182V142.545C571.773 142.879 571 143.182 570.091 143.455C569.212 143.727 568.242 143.985 567.182 144.227C566.121 144.47 565.03 144.682 563.909 144.864C562.788 145.045 561.712 145.212 560.682 145.364C558.591 145.697 556.803 146.212 555.318 146.909C553.864 147.606 552.742 148.515 551.955 149.636C551.197 150.727 550.818 152.03 550.818 153.545C550.818 155.848 551.636 157.606 553.273 158.818C554.939 160.03 557.045 160.636 559.591 160.636ZM608.045 174V104.182H629.636V116.909H630.364C631.636 112.303 633.712 108.879 636.591 106.636C639.47 104.364 642.818 103.227 646.636 103.227C647.667 103.227 648.727 103.303 649.818 103.455C650.909 103.576 651.924 103.773 652.864 104.045V123.364C651.803 123 650.409 122.712 648.682 122.5C646.985 122.288 645.47 122.182 644.136 122.182C641.5 122.182 639.121 122.773 637 123.955C634.909 125.106 633.258 126.727 632.045 128.818C630.864 130.879 630.273 133.303 630.273 136.091V174H608.045ZM704.58 104.182V120.545H660.534V104.182H704.58ZM669.761 87.4545H691.989V152.045C691.989 153.409 692.201 154.515 692.625 155.364C693.08 156.182 693.731 156.773 694.58 157.136C695.428 157.47 696.443 157.636 697.625 157.636C698.473 157.636 699.367 157.561 700.307 157.409C701.277 157.227 702.004 157.076 702.489 156.955L705.852 173C704.792 173.303 703.292 173.682 701.352 174.136C699.443 174.591 697.155 174.879 694.489 175C689.277 175.242 684.807 174.636 681.08 173.182C677.383 171.697 674.549 169.394 672.58 166.273C670.64 163.152 669.701 159.227 669.761 154.5V87.4545ZM327 214.182V195.909H405.682V214.182H377.455V289H355.273V214.182H327ZM439.182 290.318C431.879 290.318 425.576 288.879 420.273 286C415 283.091 410.939 278.955 408.091 273.591C405.273 268.197 403.864 261.788 403.864 254.364C403.864 247.152 405.288 240.848 408.136 235.455C410.985 230.03 415 225.818 420.182 222.818C425.364 219.788 431.47 218.273 438.5 218.273C443.47 218.273 448.015 219.045 452.136 220.591C456.258 222.136 459.818 224.424 462.818 227.455C465.818 230.485 468.152 234.227 469.818 238.682C471.485 243.106 472.318 248.182 472.318 253.909V259.455H411.636V246.545H451.636C451.606 244.182 451.045 242.076 449.955 240.227C448.864 238.379 447.364 236.939 445.455 235.909C443.576 234.848 441.409 234.318 438.955 234.318C436.47 234.318 434.242 234.879 432.273 236C430.303 237.091 428.742 238.591 427.591 240.5C426.439 242.379 425.833 244.515 425.773 246.909V260.045C425.773 262.894 426.333 265.394 427.455 267.545C428.576 269.667 430.167 271.318 432.227 272.5C434.288 273.682 436.742 274.273 439.591 274.273C441.561 274.273 443.348 274 444.955 273.455C446.561 272.909 447.939 272.106 449.091 271.045C450.242 269.985 451.106 268.682 451.682 267.136L472.091 267.727C471.242 272.303 469.379 276.288 466.5 279.682C463.652 283.045 459.909 285.667 455.273 287.545C450.636 289.394 445.273 290.318 439.182 290.318ZM483.67 289V219.182H505.261V231.909H505.989C507.261 227.303 509.337 223.879 512.216 221.636C515.095 219.364 518.443 218.227 522.261 218.227C523.292 218.227 524.352 218.303 525.443 218.455C526.534 218.576 527.549 218.773 528.489 219.045V238.364C527.428 238 526.034 237.712 524.307 237.5C522.61 237.288 521.095 237.182 519.761 237.182C517.125 237.182 514.746 237.773 512.625 238.955C510.534 240.106 508.883 241.727 507.67 243.818C506.489 245.879 505.898 248.303 505.898 251.091V289H483.67ZM537.545 289V219.182H559.136V231.909H559.864C561.136 227.303 563.212 223.879 566.091 221.636C568.97 219.364 572.318 218.227 576.136 218.227C577.167 218.227 578.227 218.303 579.318 218.455C580.409 218.576 581.424 218.773 582.364 219.045V238.364C581.303 238 579.909 237.712 578.182 237.5C576.485 237.288 574.97 237.182 573.636 237.182C571 237.182 568.621 237.773 566.5 238.955C564.409 240.106 562.758 241.727 561.545 243.818C560.364 245.879 559.773 248.303 559.773 251.091V289H537.545ZM608.477 290.182C604.023 290.182 600.068 289.439 596.614 287.955C593.189 286.439 590.477 284.167 588.477 281.136C586.508 278.076 585.523 274.242 585.523 269.636C585.523 265.758 586.205 262.485 587.568 259.818C588.932 257.152 590.811 254.985 593.205 253.318C595.598 251.652 598.356 250.394 601.477 249.545C604.598 248.667 607.932 248.076 611.477 247.773C615.447 247.409 618.644 247.03 621.068 246.636C623.492 246.212 625.25 245.621 626.341 244.864C627.462 244.076 628.023 242.97 628.023 241.545V241.318C628.023 238.985 627.22 237.182 625.614 235.909C624.008 234.636 621.841 234 619.114 234C616.174 234 613.811 234.636 612.023 235.909C610.235 237.182 609.098 238.939 608.614 241.182L588.114 240.455C588.72 236.212 590.28 232.424 592.795 229.091C595.341 225.727 598.826 223.091 603.25 221.182C607.705 219.242 613.053 218.273 619.295 218.273C623.75 218.273 627.856 218.803 631.614 219.864C635.371 220.894 638.644 222.409 641.432 224.409C644.22 226.379 646.371 228.803 647.886 231.682C649.432 234.561 650.205 237.848 650.205 241.545V289H629.295V279.273H628.75C627.508 281.636 625.917 283.636 623.977 285.273C622.068 286.909 619.811 288.136 617.205 288.955C614.629 289.773 611.72 290.182 608.477 290.182ZM615.341 275.636C617.735 275.636 619.886 275.152 621.795 274.182C623.735 273.212 625.28 271.879 626.432 270.182C627.583 268.455 628.159 266.455 628.159 264.182V257.545C627.523 257.879 626.75 258.182 625.841 258.455C624.962 258.727 623.992 258.985 622.932 259.227C621.871 259.47 620.78 259.682 619.659 259.864C618.538 260.045 617.462 260.212 616.432 260.364C614.341 260.697 612.553 261.212 611.068 261.909C609.614 262.606 608.492 263.515 607.705 264.636C606.947 265.727 606.568 267.03 606.568 268.545C606.568 270.848 607.386 272.606 609.023 273.818C610.689 275.03 612.795 275.636 615.341 275.636ZM663.795 289V219.182H685.386V231.909H686.114C687.386 227.303 689.462 223.879 692.341 221.636C695.22 219.364 698.568 218.227 702.386 218.227C703.417 218.227 704.477 218.303 705.568 218.455C706.659 218.576 707.674 218.773 708.614 219.045V238.364C707.553 238 706.159 237.712 704.432 237.5C702.735 237.288 701.22 237.182 699.886 237.182C697.25 237.182 694.871 237.773 692.75 238.955C690.659 240.106 689.008 241.727 687.795 243.818C686.614 245.879 686.023 248.303 686.023 251.091V289H663.795ZM717.67 289V219.182H739.898V289H717.67ZM728.807 211.045C725.686 211.045 723.004 210.015 720.761 207.955C718.519 205.864 717.398 203.348 717.398 200.409C717.398 197.5 718.519 195.015 720.761 192.955C723.004 190.864 725.686 189.818 728.807 189.818C731.958 189.818 734.64 190.864 736.852 192.955C739.095 195.015 740.216 197.5 740.216 200.409C740.216 203.348 739.095 205.864 736.852 207.955C734.64 210.015 731.958 211.045 728.807 211.045ZM799.091 258.864V219.182H821.273V289H800.091V276H799.364C797.818 280.273 795.182 283.667 791.455 286.182C787.758 288.667 783.288 289.909 778.045 289.909C773.288 289.909 769.106 288.818 765.5 286.636C761.894 284.455 759.091 281.409 757.091 277.5C755.091 273.561 754.076 268.955 754.045 263.682V219.182H776.273V259.318C776.303 263.106 777.303 266.091 779.273 268.273C781.242 270.455 783.924 271.545 787.318 271.545C789.53 271.545 791.515 271.061 793.273 270.091C795.061 269.091 796.47 267.652 797.5 265.773C798.561 263.864 799.091 261.561 799.091 258.864ZM835.42 289V219.182H856.557V232H857.33C858.784 227.758 861.239 224.409 864.693 221.955C868.148 219.5 872.269 218.273 877.057 218.273C881.905 218.273 886.057 219.515 889.511 222C892.966 224.485 895.163 227.818 896.102 232H896.83C898.133 227.848 900.678 224.53 904.466 222.045C908.254 219.53 912.723 218.273 917.875 218.273C924.481 218.273 929.845 220.394 933.966 224.636C938.087 228.848 940.148 234.636 940.148 242V289H917.92V247.091C917.92 243.606 917.027 240.955 915.239 239.136C913.451 237.288 911.133 236.364 908.284 236.364C905.223 236.364 902.814 237.364 901.057 239.364C899.33 241.333 898.466 243.985 898.466 247.318V289H877.102V246.864C877.102 243.621 876.223 241.061 874.466 239.182C872.708 237.303 870.39 236.364 867.511 236.364C865.572 236.364 863.86 236.833 862.375 237.773C860.89 238.682 859.723 239.985 858.875 241.682C858.057 243.379 857.648 245.379 857.648 247.682V289H835.42Z" fill="white"/>
</svg>
